<svg xmlns="http://www.w3.org/2000/svg" width="28.649" height="28.649" viewBox="0 0 28.649 28.649"><defs><style>.a{fill:#00c3ff;}.b{fill:#fff;}</style></defs><g transform="translate(-210.461 -684.688)"><path class="a" d="M233.235,713.337h-16.9a5.882,5.882,0,0,1-5.875-5.875v-16.9a5.882,5.882,0,0,1,5.875-5.875h16.9a5.882,5.882,0,0,1,5.875,5.875v16.9A5.882,5.882,0,0,1,233.235,713.337Z"/><g transform="translate(215.245 690.564)"><path class="b" d="M242.264,781.5a1.4,1.4,0,0,1-1.911.512h0a1.4,1.4,0,0,1-.512-1.911l.275-.477h3.231Z" transform="translate(-238.227 -765.302)"/><path class="b" d="M234.346,725.508a1.4,1.4,0,0,1,0-2.8H237.1l3.775-6.538-1.023-1.772a1.4,1.4,0,0,1,.512-1.911h0a1.4,1.4,0,0,1,1.911.512l.215.373L242.7,713a1.4,1.4,0,0,1,2.423,1.4l-4.8,8.309h3.026l1.615,2.8Z" transform="translate(-232.947 -712.303)"/></g><g transform="translate(224.786 690.564)"><path class="b" d="M288.317,743.967h-1.136l.921,1.6a1.4,1.4,0,1,1-2.423,1.4l-4.857-8.413,1.615-2.8,3.128,5.418h2.752a1.4,1.4,0,1,1,0,2.8Z" transform="translate(-280.176 -730.762)"/><path class="b" d="M277.786,761.217v2.8h2.482l-1.615-2.8Z" transform="translate(-277.786 -750.809)"/><path class="b" d="M280.564,713.34A1.4,1.4,0,0,0,278,713l-.215.373h0v5.6l2.638-4.569A1.39,1.39,0,0,0,280.564,713.34Z" transform="translate(-277.786 -712.303)"/></g></g></svg>