<svg xmlns="http://www.w3.org/2000/svg" width="26.788" height="26.788" viewBox="0 0 26.788 26.788"><defs><style>.a{fill:#1976d2;}.b{fill:#fafafa;}</style></defs><g transform="translate(0)"><path class="a" d="M-298.666,1196.78h-20.091a3.352,3.352,0,0,0-3.349,3.349v20.091a3.352,3.352,0,0,0,3.349,3.348h20.091a3.352,3.352,0,0,0,3.349-3.348v-20.091A3.352,3.352,0,0,0-298.666,1196.78Z" transform="translate(322.105 -1196.78)"/><path class="b" d="M-279.345,1220.253h-4.186V1216.9c0-.924.75-.837,1.674-.837h1.674v-4.186h-3.349a5.023,5.023,0,0,0-5.023,5.023v3.349H-291.9v4.186h3.349v9.208h5.023v-9.208h2.511Z" transform="translate(301.947 -1206.859)"/></g></svg>