<svg xmlns="http://www.w3.org/2000/svg" width="25.306" height="27.87" viewBox="0 0 25.306 27.87"><defs><style>.a{fill:#32bbff;}.b{fill:#2fceff;}.c{fill:#43f062;}.d{fill:#f03745;}.e{fill:#fecf00;}</style></defs><g transform="translate(21.169 -669.188)"><g transform="translate(-21.169 669.189)"><path class="a" d="M5.054,678.751c-3.238-1.811-8.434-4.719-16.494-9.232a1.944,1.944,0,0,0-1.709-.223L.68,683.126Z" transform="translate(14.478 -669.192)"/><path class="b" d="M-19.84,669.822a1.975,1.975,0,0,0-.294.126,1.944,1.944,0,0,0-1.035,1.729v23.949a1.944,1.944,0,0,0,1.035,1.729,2,2,0,0,0,.294.126l13.829-13.829Z" transform="translate(21.169 -669.718)"/><path class="a" d="M.678,753.278l-13.829,13.829a1.923,1.923,0,0,0,1.709-.223c7.817-4.377,12.955-7.25,16.23-9.077l.269-.151Z" transform="translate(14.48 -739.345)"/></g><path class="c" d="M-12.92,669.516a1.949,1.949,0,0,0-2-.1L-1.01,683.332l4.584-4.584C.336,676.937-4.86,674.029-12.92,669.516Z" transform="translate(-5.211)"/><path class="d" d="M-1.01,752.012l-13.913,13.913a1.937,1.937,0,0,0,2-.1c7.817-4.377,12.955-7.25,16.23-9.077l.269-.151Z" transform="translate(-5.211 -69.1)"/><path class="e" d="M78.343,730.5a1.939,1.939,0,0,0-1-1.7s-1.241-.692-5.045-2.82L67.775,730.5l4.529,4.529c3.762-2.112,5.041-2.825,5.041-2.825A1.939,1.939,0,0,0,78.343,730.5Z" transform="translate(-74.206 -47.374)"/></g></svg>