<svg xmlns="http://www.w3.org/2000/svg" xmlns:xlink="http://www.w3.org/1999/xlink" width="26.788" height="26.788" viewBox="0 0 26.788 26.788"><defs><style>.a{fill:url(#a);}.b{fill:#fff;}</style><linearGradient id="a" y1="0.5" x2="1" y2="0.5" gradientUnits="objectBoundingBox"><stop offset="0" stop-color="#00c3ff"/><stop offset="1" stop-color="#00b0ed"/></linearGradient></defs><g transform="translate(0)"><path class="a" d="M-196.068,1196.78h-20.091a3.352,3.352,0,0,0-3.348,3.349v20.091a3.352,3.352,0,0,0,3.348,3.348h20.091a3.352,3.352,0,0,0,3.349-3.348v-20.091A3.352,3.352,0,0,0-196.068,1196.78Z" transform="translate(219.507 -1196.78)"/><path class="b" d="M-187.186,1219.231a5.934,5.934,0,0,1-1.694.47l-.007-.04a3.152,3.152,0,0,0,1.25-1.706,6.31,6.31,0,0,1-1.509.631,4.435,4.435,0,0,1-.531.109,3.273,3.273,0,0,0-2.351-.991,3.284,3.284,0,0,0-3.284,3.284c0,.065,0,.13.006.195a3.139,3.139,0,0,0,.06.462,9.178,9.178,0,0,1-6.672-3.332,3.248,3.248,0,0,0,1,4.294,3.42,3.42,0,0,1-1.525-.4,3.285,3.285,0,0,0,2.676,3.236,3.109,3.109,0,0,1-1.494.031,3.167,3.167,0,0,0,2.987,2.271,6.543,6.543,0,0,1-4.7,1.4,9.234,9.234,0,0,0,4.956,1.433,9.279,9.279,0,0,0,9.279-9.279c0-.064,0-.128,0-.191q0-.057,0-.114c0-.027,0-.053,0-.08A5.805,5.805,0,0,0-187.186,1219.231Z" transform="translate(208.476 -1210.745)"/></g></svg>